<?xml version="1.0" encoding="UTF-8" standalone="no"?>
<!-- Generator: Adobe Illustrator 25.0.0, SVG Export Plug-In . SVG Version: 6.00 Build 0)  -->

<svg
   version="1.1"
   id="katman_1"
   x="0px"
   y="0px"
   viewBox="0 0 1325.2 203"
   xml:space="preserve"
   sodipodi:docname="CodeOnGithub.svg"
   inkscape:version="1.3 (0e150ed6c4, 2023-07-21)"
   width="1325.2"
   height="203"
   xmlns:inkscape="http://www.inkscape.org/namespaces/inkscape"
   xmlns:sodipodi="http://sodipodi.sourceforge.net/DTD/sodipodi-0.dtd"
   xmlns="http://www.w3.org/2000/svg"
   xmlns:svg="http://www.w3.org/2000/svg"><defs
   id="defs5" /><sodipodi:namedview
   id="namedview5"
   pagecolor="#ffffff"
   bordercolor="#999999"
   borderopacity="1"
   inkscape:showpageshadow="0"
   inkscape:pageopacity="0"
   inkscape:pagecheckerboard="0"
   inkscape:deskcolor="#d1d1d1"
   inkscape:zoom="0.63764881"
   inkscape:cx="662.59043"
   inkscape:cy="47.831972"
   inkscape:window-width="1920"
   inkscape:window-height="1050"
   inkscape:window-x="5360"
   inkscape:window-y="256"
   inkscape:window-maximized="1"
   inkscape:current-layer="g4" />&#10;<style
   type="text/css"
   id="style1">&#10;	.st0{fill-rule:evenodd;clip-rule:evenodd;fill:#E3ECF5;}&#10;	.st1{fill:#FFFFFF;stroke:#C7C6C6;stroke-width:0.8678;stroke-miterlimit:10;}&#10;	.st2{fill:#020203;}&#10;	.st3{font-family:'Roboto-Bold';}&#10;	.st4{font-size:63.6709px;}&#10;	.st5{fill-rule:evenodd;clip-rule:evenodd;fill:#181616;}&#10;	.st6{fill:#181616;}&#10;	.st7{fill:#FFFFFF;}&#10;	.st8{fill-rule:evenodd;clip-rule:evenodd;fill:#FFFFFF;}&#10;</style>&#10;&#10;<g
   id="g5"
   transform="translate(-237.4,-751.1)">&#10;	&#10;	<g
   id="g4">&#10;		<path
   class="st6"
   d="M 1505.9,954.1 H 294.1 c -31.3,0 -56.7,-25.4 -56.7,-56.7 v -89.6 c 0,-31.3 25.4,-56.7 56.7,-56.7 h 1211.8 c 31.3,0 56.7,25.4 56.7,56.7 v 89.6 c 0,31.4 -25.4,56.7 -56.7,56.7 z"
   id="path2" />&#10;		<text
   class="st7 st3 st4"
   id="text2"
   x="596.43073"
   y="874.16827">View our Code on Github</text>&#10;		<g
   id="XMLID_52_">&#10;			<g
   id="g3">&#10;				<path
   id="XMLID_83_"
   class="st8"
   d="m 378.1,792.4 c -36.8,0 -66.7,29.8 -66.7,66.7 0,29.5 19.1,54.4 45.6,63.3 3.3,0.6 4.6,-1.4 4.6,-3.2 0,-1.6 -0.1,-6.8 -0.1,-12.4 -18.5,4 -22.5,-7.9 -22.5,-7.9 -3,-7.7 -7.4,-9.8 -7.4,-9.8 -6,-4.1 0.5,-4.1 0.5,-4.1 6.7,0.5 10.2,6.9 10.2,6.9 5.9,10.2 15.6,7.2 19.4,5.5 0.6,-4.3 2.3,-7.2 4.2,-8.9 -14.8,-1.7 -30.4,-7.4 -30.4,-32.9 0,-7.3 2.6,-13.2 6.9,-17.9 -0.7,-1.7 -3,-8.5 0.6,-17.6 0,0 5.6,-1.8 18.3,6.8 5.3,-1.5 11,-2.2 16.7,-2.2 5.7,0 11.4,0.8 16.7,2.2 12.7,-8.6 18.3,-6.8 18.3,-6.8 3.6,9.2 1.3,16 0.7,17.6 4.3,4.7 6.9,10.6 6.9,17.9 0,25.6 -15.6,31.2 -30.4,32.9 2.4,2.1 4.5,6.1 4.5,12.3 0,8.9 -0.1,16.1 -0.1,18.3 0,1.8 1.2,3.9 4.6,3.2 26.5,-8.8 45.5,-33.8 45.5,-63.2 0.1,-36.8 -29.8,-66.7 -66.6,-66.7 z" />&#10;				<path
   id="XMLID_82_"
   class="st7"
   d="m 336.7,888.2 c -0.1,0.3 -0.7,0.4 -1.1,0.2 -0.5,-0.2 -0.8,-0.7 -0.6,-1 0.1,-0.3 0.7,-0.4 1.1,-0.2 0.5,0.2 0.7,0.6 0.6,1 z" />&#10;				<path
   id="XMLID_81_"
   class="st7"
   d="m 339.4,891.2 c -0.3,0.3 -0.9,0.2 -1.4,-0.3 -0.4,-0.5 -0.5,-1.1 -0.2,-1.4 0.3,-0.3 0.9,-0.2 1.4,0.3 0.4,0.4 0.5,1.1 0.2,1.4 z" />&#10;				<path
   id="XMLID_80_"
   class="st7"
   d="m 342,895 c -0.4,0.3 -1.1,0 -1.5,-0.6 -0.4,-0.6 -0.4,-1.3 0,-1.6 0.4,-0.3 1.1,0 1.5,0.6 0.4,0.6 0.4,1.3 0,1.6 z" />&#10;				<path
   id="XMLID_79_"
   class="st7"
   d="m 345.6,898.7 c -0.4,0.4 -1.1,0.3 -1.7,-0.3 -0.6,-0.5 -0.7,-1.3 -0.4,-1.7 0.4,-0.4 1.2,-0.3 1.7,0.3 0.6,0.5 0.8,1.3 0.4,1.7 z" />&#10;				<path
   id="XMLID_78_"
   class="st7"
   d="m 350.6,900.9 c -0.2,0.5 -0.9,0.8 -1.7,0.5 -0.8,-0.2 -1.2,-0.8 -1.1,-1.4 0.2,-0.5 0.9,-0.8 1.7,-0.5 0.7,0.2 1.2,0.8 1.1,1.4 z" />&#10;				<path
   id="XMLID_77_"
   class="st7"
   d="m 356,901.3 c 0,0.5 -0.6,1 -1.4,1 -0.8,0 -1.4,-0.4 -1.5,-1 0,-0.6 0.6,-1 1.4,-1 0.9,0 1.5,0.4 1.5,1 z" />&#10;				<path
   id="XMLID_76_"
   class="st7"
   d="m 361.1,900.4 c 0.1,0.5 -0.5,1.1 -1.2,1.2 -0.8,0.1 -1.5,-0.2 -1.6,-0.7 -0.1,-0.5 0.5,-1.1 1.2,-1.2 0.8,-0.2 1.5,0.2 1.6,0.7 z" />&#10;			</g>&#10;		</g>&#10;	</g>&#10;</g>&#10;</svg>
